HIERARCHY
ROOT Hips
{
	OFFSET 0.00 0.00 0.00
	CHANNELS 6 Xposition Yposition Zposition Yrotation Xrotation Zrotation
	JOINT LHipJoint
	{
		OFFSET	0.0000	0.0000	0.0000
		CHANNELS 3 Yrotation Xrotation Zrotation
		JOINT LeftUpLeg
		{
			OFFSET	1.0138	-0.0809	-0.0827
			CHANNELS 3 Yrotation Xrotation Zrotation
			JOINT LeftLeg
			{
				OFFSET	0.4110	-3.9095	0.3245
				CHANNELS 3 Yrotation Xrotation Zrotation
				JOINT LeftFoot
				{
					OFFSET	0.3810	-4.0555	-0.1470
					CHANNELS 3 Yrotation Xrotation Zrotation
					JOINT LeftToeBase
					{
						OFFSET	0.1396	-0.4462	1.3079
						CHANNELS 3 Yrotation Xrotation Zrotation
						End Site
						{
							OFFSET 0.0161 -0.0248 0.1809
						}
					}
				}
			}
		}
	}
	JOINT LowerBack
	{
		OFFSET	0.0000	0.7977	-0.3873
		CHANNELS 3 Yrotation Xrotation Zrotation
		JOINT Spine
		{
			OFFSET	0.0000	1.4131	0.1715
			CHANNELS 3 Yrotation Xrotation Zrotation
			JOINT Spine1
			{
				OFFSET	0.0000	1.4392	-0.1032
				CHANNELS 3 Yrotation Xrotation Zrotation
				JOINT LeftShoulder
				{
					OFFSET	0.2274	1.0382	0.4032
					CHANNELS 3 Yrotation Xrotation Zrotation
					JOINT LeftArm
					{
						OFFSET	1.4730	-0.2267	-0.0231
						CHANNELS 3 Yrotation Xrotation Zrotation
						JOINT LeftForeArm
						{
							OFFSET	1.6131	-1.8059	0.0081
							CHANNELS 3 Yrotation Xrotation Zrotation
							JOINT LeftHand
							{
								OFFSET	1.2197	-1.2423	1.6317
								CHANNELS 3 Yrotation Xrotation Zrotation
								JOINT LThumb
								{
									OFFSET	0.0109	-0.0753	0.4387
									CHANNELS 3 Yrotation Xrotation Zrotation
									End Site
									{
										OFFSET -0.2090 -0.0868 0.2097
									}
								}
								JOINT LeftFingerBase
								{
									OFFSET	0.1071	-0.1567	0.2607
									CHANNELS 3 Yrotation Xrotation Zrotation
									JOINT LeftHandFinger1
									{
										OFFSET	0.1706	-0.2492	0.6830
										CHANNELS 3 Yrotation Xrotation Zrotation
										End Site
										{
											OFFSET 0.0335 -0.1507 0.2071
										}
									}
								}
							}
						}
					}
				}
				JOINT Neck
				{
					OFFSET	0.0000	1.7498	0.2381
					CHANNELS 3 Yrotation Xrotation Zrotation
					JOINT Neck1
					{
						OFFSET	0.0000	0.5043	0.1959
						CHANNELS 3 Yrotation Xrotation Zrotation
						JOINT Head
						{
							OFFSET	0.0000	0.5044	0.1959
							CHANNELS 3 Yrotation Xrotation Zrotation
							End Site
							{
								OFFSET 0.0000 1.4798 -0.0693
							}
						}
					}
				}
				JOINT RightShoulder
				{
					OFFSET	-0.2274	1.0382	0.4032
					CHANNELS 3 Yrotation Xrotation Zrotation
					JOINT RightArm
					{
						OFFSET	-1.4730	-0.2267	-0.0231
						CHANNELS 3 Yrotation Xrotation Zrotation
						JOINT RightForeArm
						{
							OFFSET	-1.6131	-1.8059	0.0081
							CHANNELS 3 Yrotation Xrotation Zrotation
							JOINT RightHand
							{
								OFFSET	-1.2197	-1.2423	1.6317
								CHANNELS 3 Yrotation Xrotation Zrotation
								JOINT RThumb
								{
									OFFSET	-0.0109	-0.0753	0.4387
									CHANNELS 3 Yrotation Xrotation Zrotation
									End Site
									{
										OFFSET 0.2090 -0.0868 0.2097
									}
								}
								JOINT RightFingerBase
								{
									OFFSET	-0.1071	-0.1567	0.2607
									CHANNELS 3 Yrotation Xrotation Zrotation
									JOINT RightHandFinger1
									{
										OFFSET	-0.1706	-0.2492	0.6830
										CHANNELS 3 Yrotation Xrotation Zrotation
										End Site
										{
											OFFSET -0.0335 -0.1507 0.2071
										}
									}
								}
							}
						}
					}
				}
			}
		}
	}
	JOINT RHipJoint
	{
		OFFSET	0.0000	0.0000	0.0000
		CHANNELS 3 Yrotation Xrotation Zrotation
		JOINT RightUpLeg
		{
			OFFSET	-1.0138	-0.0809	-0.0827
			CHANNELS 3 Yrotation Xrotation Zrotation
			JOINT RightLeg
			{
				OFFSET	-0.4110	-3.9095	0.3245
				CHANNELS 3 Yrotation Xrotation Zrotation
				JOINT RightFoot
				{
					OFFSET	-0.3810	-4.0555	-0.1470
					CHANNELS 3 Yrotation Xrotation Zrotation
					JOINT RightToeBase
					{
						OFFSET	-0.1396	-0.4462	1.3079
						CHANNELS 3 Yrotation Xrotation Zrotation
						End Site
						{
							OFFSET -0.0161 -0.0248 0.1809
						}
					}
				}
			}
		}
	}
}
MOTION
Frames: 9
Frame Time: 0.0333333
0.0146 8.4011 0.0301 65.4436 4.7023 0.9062 0.0000 -0.0000 0.0000 7.4360 -15.4464 -11.1563 1.6219 27.2500 -0.1896 -2.2021 -16.0992 10.5568 -0.0000 -8.2682 -0.0000 0.0000 -0.0000 0.0000 -5.4484 4.7048 -0.7908 -10.8805 9.4592 -1.0086 -6.4330 -2.3201 -0.1718 -30.7705 -3.6831 -16.5577 21.5933 23.4778 2.3494 21.4166 -5.0466 21.8234 21.4116 0.3069 11.5795 -13.4901 22.5448 -17.4468 -3.3777 -7.3775 -0.0488 -5.6228 4.6532 -2.3366 -5.6541 4.6349 -2.3213 -30.1514 -6.9911 14.9048 -1.3332 1.1024 -1.8305 19.4757 -5.8329 28.0602 -7.5875 9.5710 1.4165 1.5336 -6.5303 -12.8958 2.2151 -17.7471 -41.4625 10.3875 14.4129 12.7421 13.8823 2.5626 8.4004 0.0000 -0.0000 0.0000 2.1327 -29.6969 -0.0385 -0.8696 61.0611 2.1838 0.2841 -4.7985 -2.4490 0.0000 -8.1583 0.0000 
0.0160 8.4433 0.0606 67.1470 4.9267 0.0679 0.0000 -0.0000 0.0000 6.7705 -10.1330 -11.0628 0.2410 23.7673 -0.7860 -3.0995 -17.9176 12.1057 -0.0000 -7.8582 -0.0000 0.0000 -0.0000 0.0000 -6.0272 4.6781 -0.0766 -11.8572 9.4906 0.4303 -6.8668 -3.0387 0.0972 -31.1834 -5.3499 -15.0330 19.7738 21.8424 1.6803 21.5428 -6.8069 21.3189 21.4116 0.3068 11.5795 -12.3621 21.1404 -16.2433 -3.3601 -7.3982 -0.0350 -5.6177 4.7603 -2.3591 -5.6549 4.7311 -2.3484 -30.0769 -7.0217 14.4267 -2.7443 1.4631 -1.9750 19.0497 -3.6056 27.6356 -9.7833 11.9250 1.0505 -1.8092 -3.7160 -11.3308 2.2151 -17.7471 -41.4625 10.6188 14.6967 13.0030 13.9013 2.5786 8.4162 0.0000 -0.0000 0.0000 -0.4649 -32.7639 4.8927 -3.3963 49.7380 -0.6606 0.3233 -6.3047 -1.5618 0.0000 -7.1506 -0.0000 
0.0244 8.4136 0.0956 69.3505 5.4844 -0.1124 0.0000 -0.0000 0.0000 6.7284 -5.5560 -11.3821 -2.1291 21.5873 -1.7075 -4.4764 -20.2238 14.3076 0.0000 -7.3671 0.0000 0.0000 -0.0000 0.0000 -6.9087 4.4308 0.4006 -13.5557 9.0113 1.0168 -7.3505 -3.6553 0.3612 -32.0704 -5.7670 -13.2691 17.7583 19.9645 0.9972 22.4227 -8.6748 19.7661 21.4116 0.3069 11.5795 -12.0842 20.6793 -15.9083 -3.3504 -7.4095 -0.0274 -5.6179 4.7604 -2.1771 -5.6436 4.7244 -2.1843 -29.9894 -7.1195 14.2272 -4.0989 1.7807 -2.0614 18.4188 -0.8035 27.3343 -11.6246 13.8582 0.6755 -4.2214 -0.2813 -11.0719 2.2150 -17.7471 -41.4625 11.5939 15.3248 14.0065 13.8841 2.5641 8.4019 0.0000 -0.0000 0.0000 -1.9767 -34.2868 8.0906 -3.3895 35.2103 -1.0602 0.1771 -6.3561 -0.2214 0.0000 -6.8994 -0.0000 
0.0383 8.3246 0.1266 72.3857 5.8898 0.3556 0.0000 -0.0000 0.0000 7.1973 -1.0116 -11.8515 -5.1449 20.2599 -2.7068 -7.1252 -22.6319 17.3246 0.0000 -7.2401 -0.0000 0.0000 -0.0000 0.0000 -8.0580 4.1485 0.5957 -15.9587 8.3539 0.6776 -8.0425 -4.1198 0.5525 -33.8949 -5.1537 -11.1717 15.8202 18.0960 0.4008 23.6520 -10.2122 18.6579 21.4116 0.3069 11.5795 -11.9526 20.4461 -15.7457 -3.3455 -7.4153 -0.0236 -5.6415 4.6485 -1.8225 -5.6581 4.6330 -1.8509 -30.0537 -7.0836 14.4815 -5.3673 2.0408 -2.0491 17.1046 2.6690 27.5200 -12.4443 14.7054 0.4891 -6.5208 3.6588 -11.4728 2.2151 -17.7471 -41.4625 12.8514 15.9726 15.2822 13.8560 2.5404 8.3785 0.0000 -0.0000 0.0000 -1.8901 -34.7313 8.8905 -2.2131 19.2399 -0.5836 0.1865 -5.6153 -0.2625 0.0000 -6.8359 0.0000 
0.0865 8.1472 0.1465 76.9318 5.9519 1.4333 0.0000 -0.0000 0.0000 7.9214 3.2292 -11.8931 -6.6782 21.0105 -3.4902 -13.5881 -25.6195 21.4768 -0.0000 -7.6806 -0.0000 0.0000 -0.0000 0.0000 -9.6222 3.8036 0.6012 -19.1638 7.5472 0.1418 -8.8816 -4.3929 0.5695 -36.9373 -4.1016 -8.6984 14.2285 16.5179 -0.0429 24.3811 -11.4091 18.1324 21.4116 0.3068 11.5795 -11.3317 19.7704 -15.0668 -3.3406 -7.4211 -0.0198 -5.6954 4.3973 -1.7917 -5.7272 4.4069 -1.7692 -30.4455 -6.5835 14.9404 -6.4108 2.2139 -2.0237 15.2374 5.8945 28.1569 -13.0798 15.3559 0.3365 -8.8148 7.0325 -11.8324 2.2151 -17.7471 -41.4625 13.5595 16.2582 15.9940 13.8211 2.5109 8.3494 0.0000 -0.0000 0.0000 -2.0982 -36.9009 7.6686 -2.3682 8.9632 -0.5249 0.3173 -7.5419 0.3020 0.0000 -7.5828 0.0000 
0.1363 7.9461 0.1497 81.5558 5.8273 2.8082 0.0000 -0.0000 0.0000 8.5948 8.3525 -11.3655 -6.7021 20.3690 -3.6046 -21.8129 -27.5689 25.6413 0.0000 -8.4171 0.0000 0.0000 -0.0000 0.0000 -11.1733 3.5697 0.3262 -22.1515 7.0479 -0.3354 -9.5850 -4.4610 0.4185 -40.8412 -3.3741 -6.2191 13.2123 15.4909 -0.3038 23.8848 -12.5330 17.5044 21.4116 0.3068 11.5795 -10.5653 19.1864 -14.2843 -3.3371 -7.4252 -0.0170 -5.7979 4.0709 -1.7698 -5.8346 4.1116 -1.7356 -31.0086 -6.3083 15.1876 -7.0183 2.2703 -2.0623 13.5913 7.4895 28.7667 -15.1864 17.4722 -0.2191 -10.3005 8.5021 -11.7368 2.2150 -17.7471 -41.4625 13.4635 16.1871 15.8935 13.7567 2.4565 8.2958 0.0000 -0.0000 0.0000 -2.7968 -40.8270 5.8740 -4.9988 7.1073 -0.9159 0.0334 -12.3626 4.4556 -0.0000 -7.2017 -0.0000 
0.1436 7.7715 0.1344 84.5265 5.7923 3.4803 0.0000 -0.0000 0.0000 9.3754 13.0793 -10.1865 -6.8307 19.2984 -3.7201 -27.6951 -27.6718 28.7804 -0.0000 -9.4187 -0.0000 0.0000 -0.0000 0.0000 -12.1712 3.7147 0.2254 -23.9370 7.4128 -0.2734 -9.9034 -4.3368 0.1982 -44.4795 -3.7323 -4.5614 12.9054 15.1780 -0.3791 21.9429 -13.7624 16.2876 21.4116 0.3069 11.5795 -10.6044 19.9699 -14.4723 -3.3404 -7.4214 -0.0196 -5.9040 3.7510 -1.6484 -5.9306 3.7935 -1.6467 -31.4778 -6.7783 15.3222 -7.2274 2.2535 -2.0159 12.8057 7.3066 28.6855 -18.9082 21.0442 -1.3793 -10.7641 8.0602 -11.3707 2.2151 -17.7471 -41.4625 13.0881 16.0890 15.5238 13.6949 2.4042 8.2444 0.0000 -0.0000 0.0000 -2.1630 -45.9176 4.7678 -7.7179 14.7277 -2.2462 0.1928 -13.9865 3.3520 -0.0000 -7.9915 -0.0000 
0.1555 7.6287 0.1162 84.8266 6.0432 2.7973 0.0000 -0.0000 0.0000 10.4596 16.5122 -8.4074 -7.1703 19.7994 -4.1747 -28.4961 -24.7006 28.2745 0.0000 -12.1666 -0.0000 0.0000 -0.0000 0.0000 -12.3363 3.8560 0.8044 -24.0867 7.8360 0.9116 -9.8123 -4.0518 -0.0447 -46.6651 -5.5711 -4.5336 13.2824 15.5623 -0.2864 19.1220 -14.9144 14.4235 21.4116 0.3069 11.5795 -11.9020 22.3444 -15.9200 -3.3580 -7.4007 -0.0334 -5.9224 3.6686 -1.6948 -5.9493 3.6471 -1.7048 -31.6485 -8.0001 15.3743 -7.0417 2.2081 -1.6915 12.8769 6.7037 27.6193 -22.5203 24.2886 -2.7087 -11.1414 7.1159 -11.4817 2.2151 -17.7471 -41.4625 13.0119 16.2035 15.4684 13.6747 2.3871 8.2276 0.0000 -0.0000 0.0000 -2.1594 -46.7335 6.5242 -9.9251 18.7973 -3.5669 0.1316 -0.0725 -11.0069 -0.0000 -12.3855 0.0000 
0.1714 7.5900 0.1153 83.1494 6.3019 1.0269 0.0000 -0.0000 0.0000 12.5227 21.6525 -6.1418 -7.1282 16.2984 -3.4735 -26.9642 -17.9165 27.8206 -0.0000 -22.5124 0.0000 0.0000 -0.0000 0.0000 -11.8893 3.8969 1.8598 -23.2290 8.0405 2.7505 -9.4688 -3.6388 -0.3010 -47.0495 -8.4460 -6.3306 14.1803 16.4695 -0.0557 16.6463 -15.3974 12.0275 21.4116 0.3069 11.5795 -13.6050 24.8246 -17.6342 -3.3824 -7.3721 -0.0524 -5.8586 3.7497 -1.6850 -5.8863 3.7217 -1.7221 -31.1902 -9.1337 14.6089 -6.5001 2.1198 -1.2409 13.3670 6.5541 25.9574 -24.7505 26.1763 -3.6220 -12.1581 6.7368 -12.4946 2.2151 -17.7471 -41.4625 13.4594 16.4950 15.9342 13.6503 2.3664 8.2073 0.0000 -0.0000 0.0000 -0.8328 -44.7111 8.6318 -12.5299 19.8431 -4.7214 -4.2316 15.7292 -12.0383 -0.0000 -12.2031 0.0000 
